<svg width="20" height="20" viewBox="0 0 20 20" fill="none" xmlns="http://www.w3.org/2000/svg">
<path d="M14.1406 4.6875V1.875C14.1406 0.859375 13.2422 0 12.1875 0H5.46875C4.41406 0 3.55469 0.859375 3.55469 1.875V4.6875H0V20H17.6562V4.6875H14.1406ZM4.72656 1.875C4.72656 1.48438 5.07812 1.17188 5.46875 1.17188H12.1875C12.6172 1.17188 12.9297 1.48438 12.9297 1.875V4.6875H4.72656V1.875ZM16.4844 18.8281H1.17188V9.41406H16.4844V18.8281ZM16.4844 8.24219H1.17188V5.89844H3.55469V6.64062H4.72656V5.89844H12.9297V6.64062H14.1406V5.89844H16.4844V8.24219Z" fill="#1A1A1A"/>
</svg>
