<svg width="20" height="20" viewBox="0 0 20 20" fill="none" xmlns="http://www.w3.org/2000/svg">
<g clip-path="url(#clip0_6_1436)">
<path d="M19.5312 18.6719L13.4375 12.5781C14.6094 11.25 15.3125 9.49219 15.3125 7.61719C15.3125 3.39844 11.875 -0.0390625 7.65625 -0.0390625C5.58594 -0.0390625 3.67188 0.78125 2.22656 2.1875C0.78125 3.63281 0 5.58594 0 7.61719C0 11.8359 3.4375 15.2734 7.65625 15.2734C9.53125 15.2734 11.2891 14.5703 12.6172 13.3984L18.7109 19.4922L19.5312 18.6719ZM7.65625 14.1016C4.0625 14.1016 1.17188 11.1719 1.17188 7.61719C1.17188 5.89844 1.83594 4.25781 3.08594 3.04688C4.29688 1.83594 5.89844 1.13281 7.65625 1.13281C11.2109 1.13281 14.1016 4.0625 14.1016 7.61719C14.1016 11.1719 11.2109 14.1016 7.65625 14.1016Z" fill="#1A1A1A"/>
</g>
<defs>
<clipPath id="clip0_6_1436">
<rect width="20" height="20" fill="white" transform="matrix(1 0 0 -1 0 20)"/>
</clipPath>
</defs>
</svg>
